HIERARCHY
ROOT Hips
{
	OFFSET 0.00000 0.00000 0.00000
	CHANNELS 6 Xposition Yposition Zposition Zrotation Yrotation Xrotation 
	JOINT LHipJoint
	{
		OFFSET 0 0 0
		CHANNELS 3 Zrotation Yrotation Xrotation
		JOINT LeftHip
		{
			OFFSET 1.34019 -1.87553 0.90315
			CHANNELS 3 Zrotation Yrotation Xrotation
			JOINT LeftKnee
			{
				OFFSET 2.55316 -7.01474 0.00000
				CHANNELS 3 Zrotation Yrotation Xrotation
				JOINT LeftAnkle
				{
					OFFSET 2.64657 -7.27139 0.00000
					CHANNELS 3 Zrotation Yrotation Xrotation
					JOINT LeftToe
					{
						OFFSET 0.24207 -0.66507 2.14489
						CHANNELS 3 Zrotation Yrotation Xrotation
						End Site
						{
							OFFSET 0.00000 -0.00000 1.12451
						}
					}
				}
			}
		}
	}
	JOINT RHipJoint
	{
		OFFSET 0 0 0
		CHANNELS 3 Zrotation Yrotation Xrotation
		JOINT RightHip
		{
			OFFSET -1.28320 -1.87553 0.90315
			CHANNELS 3 Zrotation Yrotation Xrotation
			JOINT RightKnee
			{
				OFFSET -2.60484 -7.15674 0.00000
				CHANNELS 3 Zrotation Yrotation Xrotation
				JOINT RightAnkle
				{
					OFFSET -2.60296 -7.15159 0.00000
					CHANNELS 3 Zrotation Yrotation Xrotation
					JOINT RightToe
					{
						OFFSET -0.31082 -0.85398 2.28998
						CHANNELS 3 Zrotation Yrotation Xrotation
						End Site
						{
							OFFSET -0.00000 -0.00000 1.21611
						}
					}
				}
			}
		}
	}
	JOINT lowerback
	{
		OFFSET 0 0 0
		CHANNELS 3 Zrotation Yrotation Xrotation
		JOINT Chest
		{
			OFFSET -0.00160 2.05581 -0.15156
			CHANNELS 3 Zrotation Yrotation Xrotation
			JOINT Chest2
			{
				OFFSET 0.04594 2.06326 -0.01617
				CHANNELS 3 Zrotation Yrotation Xrotation
				JOINT lowerneck
				{
					OFFSET 0 0 0
					CHANNELS 3 Zrotation Yrotation Xrotation
					JOINT Neck
					{
						OFFSET 0.03753 1.73883 0.26751
						CHANNELS 3 Zrotation Yrotation Xrotation
						JOINT Head
						{
							OFFSET -0.09795 1.76129 -0.31794
							CHANNELS 3 Zrotation Yrotation Xrotation
							End Site
							{
								OFFSET -0.03611 1.79987 -0.13846
							}
						}
					}
				}
				JOINT LeftCollar
				{
					OFFSET 0 0 0
					CHANNELS 3 Zrotation Yrotation Xrotation
					JOINT LeftShoulder
					{
						OFFSET 3.30667 1.29205 -0.22445
CHANNELS 3 Zrotation Xrotation Yrotation
						JOINT LeftElbow
						{
OFFSET 0 -4.927850 -0.000000
CHANNELS 3 Zrotation Xrotation Yrotation
							JOINT LeftWrist
							{
OFFSET 0 -3.440520 0.000000
CHANNELS 3 Zrotation Xrotation Yrotation
								JOINT lhand
								{
									OFFSET 0 0 0
CHANNELS 3 Zrotation Xrotation Yrotation
									JOINT LFingers
									{
OFFSET 0 -0.654330 0.000000
CHANNELS 3 Zrotation Xrotation Yrotation
										End Site
										{
OFFSET 0 -0.527530 0.000000
										}
									}
								}
								JOINT LThumb
								{
OFFSET 0 0.000000 0.000000
CHANNELS 3 Zrotation Xrotation Yrotation
									End Site
									{
OFFSET 0 -0.535590 0.535590
									}
								}
							}
						}
					}
				}
				JOINT RightCollar
				{
					OFFSET 0 0 0
					CHANNELS 3 Zrotation Yrotation Xrotation
					JOINT RightShoulder
					{
						OFFSET -3.20032 1.49783 -0.27688
CHANNELS 3 Zrotation Xrotation Yrotation
						JOINT RightElbow
						{
OFFSET 0 -5.091810 -0.000000
CHANNELS 3 Zrotation Xrotation Yrotation
							JOINT RightWrist
							{
OFFSET 0 -3.498650 -0.000000
CHANNELS 3 Zrotation Xrotation Yrotation
								JOINT rhand
								{
									OFFSET 0 0 0
CHANNELS 3 Zrotation Xrotation Yrotation
									JOINT RFingers
									{
OFFSET 0 -0.666410 0.000000
CHANNELS 3 Zrotation Xrotation Yrotation
										End Site
										{
OFFSET 0 -0.537280 0.000000
										}
									}
								}
								JOINT RThumb
								{
OFFSET 0 0.000000 0.000000
CHANNELS 3 Zrotation Xrotation Yrotation
									End Site
									{
OFFSET 0 -0.545480 0.545480
									}
								}
							}
						}
					}
				}
			}
		}
	}
}
MOTION
Frames: 11
Frame Time: 0.008333333333333333
0.736862 18.251444 -2.254404 7.330013 8.776899 5.699405 0.000000 0.000000 0.000000 -19.252514 1.939648 4.788896 2.494924 9.828317 28.422755 0.160839 5.591373 7.598658 0.782430 -5.645959 -15.760808 0.000000 0.000000 0.000000 6.677700 2.745181 -23.069573 -2.824377 -10.405143 30.298868 0.699843 -15.450048 -11.108515 -0.042703 1.332934 -3.665333 3.229659 -0.276363 9.848678 6.607598 0.441377 -0.538978 5.099334 0.236739 -6.150964 9.057194 1.039935 -20.530949 -20.341998 2.757187 14.914772 -8.283130 -0.224947 8.523081 0.000000 0.000000 0.000000 40.129744 4.864104 21.610967 29.184761 -40.184245 10.879743 20.142894 -11.831224 1.200220 0.000000 0.000000 0.000000 -7.125000 0.000000 0.000000 -4.999126 28.687004 -1.992686 0.000000 0.000000 0.000000 -58.294900 3.376332 -32.687852 -19.832015 -30.439377 -5.445993 -23.222832 1.826298 2.600246 0.000000 0.000000 0.000000 7.125000 0.000000 0.000000 2.735607 32.800514 0.818275
0.671235 18.277114 -2.016367 7.493771 8.526990 5.842761 0.000000 0.000000 0.000000 -19.127851 2.268854 3.918605 2.776705 10.323918 30.032754 0.271089 5.966110 9.541588 0.591421 -4.921887 -13.686332 0.000000 0.000000 0.000000 6.946861 2.220637 -22.691484 -2.849292 -10.446958 30.436584 0.606735 -14.802652 -11.653575 -0.053093 1.486820 -4.089392 3.622729 -0.199696 9.722087 7.009690 0.613622 -0.623287 5.284906 0.317558 -6.184211 9.211008 1.164255 -20.459663 -21.202043 2.986476 14.433082 -8.582641 -0.169823 8.421181 0.000000 0.000000 0.000000 40.850262 5.319550 22.215397 29.293265 -40.279867 10.949841 20.207798 -11.956834 1.148816 0.000000 0.000000 0.000000 -7.125000 0.000000 0.000000 -4.951028 28.741358 -1.967040 0.000000 0.000000 0.000000 -58.083976 3.187008 -32.879005 -19.894190 -30.514632 -5.477508 -23.451811 1.848406 2.506227 0.000000 0.000000 0.000000 7.125000 0.000000 0.000000 2.545588 32.704111 0.767295
0.613252 18.294759 -1.793534 7.759829 8.225439 5.983216 0.000000 0.000000 0.000000 -19.223177 2.530520 3.092670 3.072604 10.811202 31.646320 0.399211 6.652751 11.475251 0.452924 -4.316457 -11.968803 0.000000 0.000000 0.000000 7.043502 1.853389 -22.361233 -2.892892 -10.519633 30.676372 0.526918 -14.307999 -12.278187 -0.058938 1.566632 -4.309299 3.954363 -0.130903 9.686357 7.341885 0.767956 -0.674740 5.434497 0.389808 -6.232693 9.249295 1.248940 -20.347846 -21.942170 3.150081 13.852275 -8.817388 -0.133127 8.267138 0.000000 0.000000 0.000000 41.613876 5.681779 23.076104 29.326297 -40.308905 10.971174 20.244221 -12.038052 1.146263 0.000000 0.000000 0.000000 -7.125000 0.000000 0.000000 -4.922862 28.743910 -1.955433 0.000000 0.000000 0.000000 -57.838854 2.930826 -32.844044 -19.983316 -30.622223 -5.522818 -23.587836 1.841216 2.384887 0.000000 0.000000 0.000000 7.125000 0.000000 0.000000 2.430009 32.575299 0.740014
0.561606 18.303367 -1.582677 8.005684 7.883279 6.009750 0.000000 0.000000 0.000000 -19.396837 2.715572 2.368809 3.391598 11.303577 33.310606 0.552322 7.559270 13.468551 0.335781 -3.723636 -10.300407 0.000000 0.000000 0.000000 7.116737 1.707080 -21.902745 -2.944379 -10.604474 30.957357 0.465344 -14.017097 -12.954195 -0.063075 1.620084 -4.456927 4.298793 -0.068586 9.744001 7.647110 0.915372 -0.654080 5.548936 0.457378 -6.256478 9.434330 1.409321 -20.182898 -22.748624 3.381685 13.247073 -9.095545 -0.053939 8.115876 0.000000 0.000000 0.000000 42.404485 6.013780 23.953168 29.407141 -40.379821 11.023473 20.274807 -12.219359 1.105138 0.000000 0.000000 0.000000 -7.125000 0.000000 0.000000 -4.900872 28.787460 -1.941533 0.000000 0.000000 0.000000 -57.526702 2.562213 -32.762657 -20.047159 -30.699189 -5.555426 -23.789830 1.855510 2.366211 0.000000 0.000000 0.000000 7.125000 0.000000 0.000000 2.265880 32.559812 0.690750
0.515276 18.305608 -1.381124 8.115263 7.558821 5.905298 0.000000 0.000000 0.000000 -19.502798 2.720777 1.770470 3.720786 11.778880 34.954646 0.712323 8.492522 15.292579 0.239574 -3.148229 -8.691850 0.000000 0.000000 0.000000 7.297521 1.810157 -21.215710 -2.989784 -10.678458 31.203010 0.421201 -13.937284 -13.687489 -0.066085 1.658790 -4.563537 4.725890 -0.033527 9.888260 7.978005 1.043330 -0.590877 5.648472 0.512940 -6.282341 9.632798 1.557287 -19.924111 -23.508876 3.578834 12.633753 -9.361554 0.023071 7.941335 0.000000 0.000000 0.000000 43.215384 6.301473 24.701802 29.483661 -40.446714 11.073066 20.376460 -12.507335 1.150382 0.000000 0.000000 0.000000 -7.125000 0.000000 0.000000 -4.819852 28.739140 -1.914795 0.000000 0.000000 0.000000 -57.138977 2.069025 -32.767545 -20.060501 -30.715148 -5.562201 -23.947442 2.038673 2.267859 0.000000 0.000000 0.000000 7.125000 0.000000 0.000000 2.134526 32.456151 0.656008
0.474948 18.305479 -1.188838 8.162665 7.313148 5.770334 0.000000 0.000000 0.000000 -19.622279 2.396431 1.235204 4.054775 12.232488 36.560070 0.885066 9.417358 17.055897 0.142853 -2.430688 -6.697855 0.000000 0.000000 0.000000 7.515497 2.005394 -20.419540 -3.022042 -10.730695 31.376896 0.387938 -13.997995 -14.450286 -0.067101 1.671674 -4.599098 5.205713 -0.016849 10.027754 8.320238 1.151539 -0.496736 5.733289 0.557392 -6.270348 9.644892 1.616442 -19.667659 -24.106883 3.691001 12.148830 -9.548384 0.061407 7.786747 0.000000 0.000000 0.000000 43.998376 6.440298 25.312485 29.521944 -40.480079 11.097949 20.435080 -12.711405 1.298458 0.000000 0.000000 0.000000 -7.125000 0.000000 0.000000 -4.768015 28.581414 -1.911992 0.000000 0.000000 0.000000 -56.706517 1.536234 -32.776723 -20.041440 -30.692231 -5.552459 -24.183057 2.302452 2.228904 0.000000 0.000000 0.000000 7.125000 0.000000 0.000000 1.942668 32.418748 0.598701
0.439124 18.305234 -1.005174 8.219959 7.110014 5.643525 0.000000 0.000000 0.000000 -19.821610 1.784469 0.697674 4.409725 12.686259 38.205586 1.086344 10.313794 18.902192 0.059654 -1.573985 -4.329819 0.000000 0.000000 0.000000 7.710786 2.247118 -19.599055 -3.039835 -10.759191 31.472075 0.371266 -14.202149 -15.158799 -0.068667 1.690939 -4.652227 5.622453 0.008590 10.122773 8.661081 1.255389 -0.364947 5.852274 0.602338 -6.193198 9.642357 1.671937 -19.492776 -24.705233 3.810153 11.749796 -9.740480 0.096865 7.677865 0.000000 0.000000 0.000000 44.693085 6.451091 25.809541 29.618891 -40.564487 11.161001 20.433983 -12.731850 1.465773 0.000000 0.000000 0.000000 -7.125000 0.000000 0.000000 -4.762084 28.403459 -1.929722 0.000000 0.000000 0.000000 -56.254457 0.996740 -32.731024 -19.975494 -30.612780 -5.518825 -24.315468 2.434323 2.104670 0.000000 0.000000 0.000000 7.125000 0.000000 0.000000 1.831261 32.285475 0.570260
0.407729 18.306511 -0.830015 8.296573 6.884330 5.531603 0.000000 0.000000 0.000000 -20.099564 1.025675 0.107659 4.790027 13.143033 39.906870 1.287856 11.035496 20.576143 0.024876 -1.015866 -2.792483 0.000000 0.000000 0.000000 7.874265 2.545858 -18.772397 -3.039247 -10.758315 31.469176 0.371657 -14.527460 -15.790297 -0.069764 1.704125 -4.688682 5.950697 0.047307 10.233326 8.974819 1.370562 -0.272573 5.992408 0.655217 -6.168364 9.701874 1.720203 -19.280960 -25.282996 3.912263 11.439399 -9.944103 0.129507 7.588281 0.000000 0.000000 0.000000 45.313240 6.425519 26.176843 29.773739 -40.698622 11.261726 20.488648 -12.704365 1.495932 0.000000 0.000000 0.000000 -7.125000 0.000000 0.000000 -4.718512 28.371068 -1.915576 0.000000 0.000000 0.000000 -55.736734 0.572623 -32.422923 -19.911309 -30.535366 -5.486190 -24.270465 2.425689 2.006661 0.000000 0.000000 0.000000 7.125000 0.000000 0.000000 1.864057 32.177204 0.585289
0.381628 18.307000 -0.661091 8.452317 6.680033 5.392300 0.000000 0.000000 0.000000 -20.487157 0.274111 -0.492616 5.181356 13.584688 41.599492 1.484238 11.796746 22.108127 0.008583 -0.595029 -1.635160 0.000000 0.000000 0.000000 7.937851 2.783834 -17.873996 -3.025118 -10.735629 31.393265 0.369948 -14.836750 -16.409413 -0.069853 1.704962 -4.691020 6.197087 0.083229 10.345829 9.215273 1.469753 -0.198019 6.102111 0.701219 -6.161976 9.665554 1.686356 -18.964561 -25.681896 3.913485 11.230092 -10.073952 0.126522 7.481897 0.000000 0.000000 0.000000 45.912173 6.368077 26.386537 29.925568 -40.829470 11.360927 20.531895 -12.789255 1.649544 0.000000 0.000000 0.000000 -7.125000 0.000000 0.000000 -4.679042 28.207340 -1.917610 0.000000 0.000000 0.000000 -55.111020 0.217195 -32.090433 -19.831547 -30.438866 -5.445791 -24.329479 2.449364 2.026075 0.000000 0.000000 0.000000 7.125000 0.000000 0.000000 1.817218 32.199653 0.569611
0.358377 18.307744 -0.497840 8.530432 6.420062 5.192265 0.000000 0.000000 0.000000 -20.780379 -0.280794 -1.143408 5.579423 14.007688 43.269049 1.602688 12.555227 23.035979 0.012468 -0.710122 -1.951673 0.000000 0.000000 0.000000 8.073964 3.027249 -16.881869 -2.995622 -10.687938 31.234619 0.354896 -15.031407 -16.998407 -0.071313 1.722958 -4.740608 6.461934 0.148816 10.473946 9.439483 1.606609 -0.082137 6.176661 0.764951 -6.121220 9.529132 1.608994 -18.729637 -25.956738 3.872394 11.117657 -10.148252 0.099051 7.405300 0.000000 0.000000 0.000000 46.456748 6.250937 26.556942 30.021349 -40.911732 11.423602 20.487238 -12.862340 2.057463 0.000000 0.000000 0.000000 -7.125000 0.000000 0.000000 -4.698331 27.773802 -1.973898 0.000000 0.000000 0.000000 -54.431563 -0.141634 -31.939895 -19.717175 -30.300036 -5.387952 -24.416463 2.518552 1.990385 0.000000 0.000000 0.000000 7.125000 0.000000 0.000000 1.745911 32.162253 0.548817
0.337851 18.309470 -0.339800 8.449163 6.052297 4.935668 0.000000 0.000000 0.000000 -20.852714 -0.562819 -1.871162 5.965248 14.394564 44.842013 1.545254 12.062338 22.570725 0.081302 -1.836004 -5.052713 0.000000 0.000000 0.000000 8.360966 3.223241 -15.868781 -2.949986 -10.613642 30.987598 0.317107 -15.003584 -17.490206 -0.075900 1.777768 -4.891894 6.791080 0.225093 10.674849 9.679438 1.773155 0.056385 6.228034 0.841358 -6.098031 9.397231 1.581851 -18.573240 -26.218258 3.907979 11.063968 -10.215274 0.102485 7.377226 0.000000 0.000000 0.000000 46.907672 6.197911 26.752573 30.066785 -40.950520 11.453360 20.459341 -12.887030 2.266184 0.000000 0.000000 0.000000 -7.125000 0.000000 0.000000 -4.712475 27.552152 -2.004494 0.000000 0.000000 0.000000 -53.768400 -0.502104 -31.747527 -19.607238 -30.166259 -5.332577 -24.387898 2.478708 1.974501 0.000000 0.000000 0.000000 7.125000 0.000000 0.000000 1.768407 32.144286 0.556674
